<?xml version="1.0" encoding="UTF-8"?>
<svg xmlns="http://www.w3.org/2000/svg" xmlns:xlink="http://www.w3.org/1999/xlink" width="700pt" height="510pt" viewBox="0 0 700 510" version="1.1">
<defs>
<linearGradient id="linear0" gradientUnits="userSpaceOnUse" x1="2079" y1="916" x2="549" y2="-614" gradientTransform="matrix(0.512445,0,0,0.512563,0,0)">
<stop offset="0" style="stop-color:rgb(100%,98.039216%,85.490196%);stop-opacity:1;"/>
<stop offset="0.495" style="stop-color:rgb(94.117647%,88.627451%,36.470588%);stop-opacity:1;"/>
<stop offset="1" style="stop-color:rgb(98.823529%,47.058824%,2.352941%);stop-opacity:1;"/>
</linearGradient>
</defs>
<g id="surface1">
<path style=" stroke:none;fill-rule:nonzero;fill:url(#linear0);" d="M 1065.375 77.398438 C 1065.375 293.953125 889.859375 469.507812 673.351562 469.507812 C 456.847656 469.507812 281.332031 293.953125 281.332031 77.398438 C 281.332031 -139.160156 456.847656 -314.714844 673.351562 -314.714844 C 889.859375 -314.714844 1065.375 -139.160156 1065.375 77.398438 Z M 1065.375 77.398438 "/>
<path style=" stroke:none;fill-rule:nonzero;fill:rgb(100%,100%,100%);fill-opacity:1;" d="M 468.632812 201.949219 C 468.632812 41.160156 338.316406 -89.1875 177.5625 -89.1875 C 16.808594 -89.1875 -113.507812 41.160156 -113.507812 201.949219 C -113.507812 362.738281 16.808594 493.085938 177.5625 493.085938 C 338.316406 493.085938 468.632812 362.738281 468.632812 201.949219 Z M 468.632812 201.949219 "/>
<path style=" stroke:none;fill-rule:nonzero;fill:rgb(100%,93.72549%,93.72549%);fill-opacity:1;" d="M 620.058594 380.320312 C 620.058594 446.28125 566.601562 499.75 500.660156 499.75 C 434.714844 499.75 381.257812 446.28125 381.257812 380.320312 C 381.257812 314.363281 434.714844 260.894531 500.660156 260.894531 C 566.601562 260.894531 620.058594 314.363281 620.058594 380.320312 Z M 620.058594 380.320312 "/>
<path style=" stroke:none;fill-rule:nonzero;fill:rgb(100%,41.568627%,41.568627%);fill-opacity:1;" d="M 645.679688 295.75 C 645.679688 361.707031 592.222656 415.175781 526.28125 415.175781 C 460.339844 415.175781 406.882812 361.707031 406.882812 295.75 C 406.882812 229.789062 460.339844 176.320312 526.28125 176.320312 C 592.222656 176.320312 645.679688 229.789062 645.679688 295.75 Z M 645.679688 295.75 "/>
<path style=" stroke:none;fill-rule:nonzero;fill:rgb(100%,70.588235%,0%);fill-opacity:1;" d="M 645.679688 77.398438 C 645.679688 80.792969 642.925781 83.546875 639.53125 83.546875 C 636.136719 83.546875 633.382812 80.792969 633.382812 77.398438 C 633.382812 74 636.136719 71.246094 639.53125 71.246094 C 642.925781 71.246094 645.679688 74 645.679688 77.398438 Z M 645.679688 77.398438 "/>
<path style=" stroke:none;fill-rule:nonzero;fill:rgb(100%,70.588235%,0%);fill-opacity:1;" d="M 792.753906 140.953125 C 792.753906 177.472656 763.15625 207.074219 726.648438 207.074219 C 690.136719 207.074219 660.542969 177.472656 660.542969 140.953125 C 660.542969 104.4375 690.136719 74.835938 726.648438 74.835938 C 763.15625 74.835938 792.753906 104.4375 792.753906 140.953125 Z M 792.753906 140.953125 "/>
<path style="fill:none;stroke-width:4;stroke-linecap:butt;stroke-linejoin:miter;stroke:rgb(100%,100%,100%);stroke-opacity:1;stroke-miterlimit:4;" d="M 887.000513 19.502183 C 887.000513 68.9321 846.927623 109.003408 797.501596 109.003408 C 748.067946 109.003408 708.002679 68.9321 708.002679 19.502183 C 708.002679 -29.927734 748.067946 -69.999043 797.501596 -69.999043 C 846.927623 -69.999043 887.000513 -29.927734 887.000513 19.502183 Z M 887.000513 19.502183 " transform="matrix(0.512445,0,0,0.512563,0,0)"/>
<path style=" stroke:none;fill-rule:nonzero;fill:rgb(7.843137%,50.980392%,67.45098%);fill-opacity:1;" d="M 332.832031 98.796875 C 332.832031 89.101562 324.976562 81.242188 315.28125 81.242188 C 305.589844 81.242188 297.730469 89.101562 297.730469 98.796875 C 297.730469 108.492188 305.589844 116.351562 315.28125 116.351562 C 324.976562 116.351562 332.832031 108.492188 332.832031 98.796875 Z M 332.832031 98.796875 "/>
</g>
</svg>
