<?xml version="1.0" encoding="UTF-8"?>
<svg xmlns="http://www.w3.org/2000/svg" xmlns:xlink="http://www.w3.org/1999/xlink" width="699pt" height="367pt" viewBox="0 0 699 367" version="1.1">
<g id="surface1">
<path style=" stroke:none;fill-rule:nonzero;fill:rgb(98.823529%,98.431373%,83.529412%);fill-opacity:1;" d="M 279.394531 231.359375 C 279.394531 297.226562 226.015625 350.621094 160.167969 350.621094 C 94.316406 350.621094 40.9375 297.226562 40.9375 231.359375 C 40.9375 165.492188 94.316406 112.097656 160.167969 112.097656 C 226.015625 112.097656 279.394531 165.492188 279.394531 231.359375 Z M 279.394531 231.359375 "/>
<path style=" stroke:none;fill-rule:nonzero;fill:rgb(100%,41.568627%,41.568627%);fill-opacity:1;" d="M 354.617188 25.082031 C 354.617188 30.167969 350.492188 34.292969 345.40625 34.292969 C 340.320312 34.292969 336.195312 30.167969 336.195312 25.082031 C 336.195312 19.992188 340.320312 15.867188 345.40625 15.867188 C 350.492188 15.867188 354.617188 19.992188 354.617188 25.082031 Z M 354.617188 25.082031 "/>
<path style=" stroke:none;fill-rule:nonzero;fill:rgb(100%,93.72549%,93.72549%);fill-opacity:1;" d="M 41.449219 91.367188 C 41.449219 100.269531 34.230469 107.488281 25.328125 107.488281 C 16.425781 107.488281 9.210938 100.269531 9.210938 91.367188 C 9.210938 82.460938 16.425781 75.242188 25.328125 75.242188 C 34.230469 75.242188 41.449219 82.460938 41.449219 91.367188 Z M 41.449219 91.367188 "/>
<path style=" stroke:none;fill-rule:nonzero;fill:rgb(98.823529%,69.803922%,0%);fill-opacity:1;" d="M 304.980469 146.902344 C 304.980469 212.769531 251.601562 266.164062 185.75 266.164062 C 119.902344 266.164062 66.523438 212.769531 66.523438 146.902344 C 66.523438 81.035156 119.902344 27.640625 185.75 27.640625 C 251.601562 27.640625 304.980469 81.035156 304.980469 146.902344 Z M 304.980469 146.902344 "/>
</g>
</svg>
